<?xml version="1.0" encoding="utf-8"?>
<!-- Generator: Adobe Illustrator 23.0.4, SVG Export Plug-In . SVG Version: 6.00 Build 0)  -->
<svg version="1.1" id="Layer_1" xmlns="http://www.w3.org/2000/svg" xmlns:xlink="http://www.w3.org/1999/xlink" x="0px" y="0px"
	 viewBox="0 0 150 150" style="enable-background:new 0 0 150 150;" xml:space="preserve">
<style type="text/css">
	.st0{fill:#E21915;}
	.st1{fill:#7D8587;}
	.st2{fill:#261F22;}
	.st3{fill:#E10300;}
</style>
<g id="tVLg3o.tif">
	<g>
		<path class="st0" d="M22.8,52.7c1.7,0,3.4,0,5.1,0c3.7,0.1,6.9,2.9,7.5,6.6c0.6,3.4-0.8,6.5-3.5,8.3c-1.1,0.7-2.3,1.2-3.7,1.3
			c-2.3,0.1-4.7,0.1-7,0.1c-1.1,0-2.2,0-3.3-0.1c-3.3-0.1-5.7-1.7-7.1-4.7c-1.3-2.7-1-5.4,0.7-7.9c1.5-2.2,3.6-3.4,6.3-3.5
			C19.5,52.7,21.1,52.7,22.8,52.7z M17.7,66c0,0.1,0.1,0.2,0.1,0.3c0.1,0,0.3,0,0.5,0c3.1,0,6.2,0,9.3,0c0.1,0,0.3,0,0.4,0
			c0.1,0,0.1-0.2,0.2-0.3c0.1-0.1,0.3-0.1,0.4-0.1c0.9-0.2,1.6-0.6,2.3-1.2c2.7-2.5,2.1-7.3-1.7-8.7c-0.5-0.2-1-0.3-1.5-0.4
			c0,0,0.1,0,0.1-0.1c0,0,0,0-0.1-0.1c0,0,0,0.1-0.1,0.1c-0.3,0-0.6,0-0.9,0c-2.2,0-4.5,0-6.7,0c-0.7,0-1.4,0-2,0c0,0,0-0.1-0.1-0.1
			c0,0,0,0-0.1,0.1c0,0,0.1,0,0.1,0.1c-0.4,0.1-0.8,0.2-1.1,0.3c-2.2,0.7-3.4,2.4-3.7,4.3c-0.3,2.5,1,4.5,2.9,5.4
			C16.6,65.7,17.2,65.8,17.7,66z"/>
		<path class="st0" d="M50.8,55.5c-0.8,0-1.6,0-2.5,0c-2.4,0-4.7,0-7.1,0c-0.2,0-0.4,0-0.6,0c-0.2,0-0.4,0.1-0.4,0.4
			c0,0.2,0,0.4,0,0.6c0,3.8,0,7.6,0,11.4c0,0.2,0,0.4,0,0.6c0,0.2,0,0.4-0.3,0.4c-0.8,0-1.6,0-2.5,0c-0.3,0-0.4-0.1-0.4-0.4
			c0-0.2,0-0.3,0-0.5c0-4.8,0-9.7,0-14.5c0-0.2,0-0.4,0-0.6c0-0.2,0.1-0.3,0.3-0.3c0.2,0,0.3,0,0.5,0c4.2,0,8.4,0,12.6,0
			c1.4,0,2.7,0.4,3.8,1.4c1,0.9,1.6,2,1.8,3.3c0.3,2-0.4,3.7-1.9,5.1c-0.8,0.7-1.6,1-2.6,1.2c-0.6,0.1-1.2,0.1-2,0.2
			c0.6,0.7,1.3,1.1,1.9,1.7c0.6,0.6,1.3,1.1,1.9,1.6c0.7,0.6,1.3,1.1,2.1,1.8c-1.5,0-2.9,0-4.3,0c-0.2,0-0.5-0.2-0.7-0.3
			c-1.3-1.1-2.6-2.3-3.9-3.4c-1.4-1.3-2.9-2.5-4.3-3.8c-0.1-0.1-0.1-0.2-0.2-0.2c2.7,0,5.3,0,8,0c0.2,0,0.4,0,0.6,0
			c0.1,0,0.1-0.2,0.1-0.3c0.8-0.2,1.4-0.6,1.9-1.3c0.9-1.6,0-3.4-1.6-3.8C51.1,55.6,50.9,55.6,50.8,55.5c0,0,0.1,0,0.1-0.1
			c0,0,0,0-0.1-0.1C50.8,55.5,50.8,55.5,50.8,55.5z"/>
		<path class="st0" d="M133.1,55.6c-3.1,0-6.2,0-9.3,0c0,0,0-0.1-0.1-0.1c0,0,0,0-0.1,0.1c0,0,0.1,0,0.1,0.1
			c-0.4,0.1-0.8,0.2-1.1,0.3c-1.7,0.5-3,1.8-3.5,3.5c0.3,0,0.5,0,0.8,0c4.5,0,9,0,13.5,0c0.2,0,0.4,0.1,0.6,0.1
			c-0.1,0.2-0.1,0.4-0.2,0.5c-0.4,0.6-0.8,1.2-1.2,1.9c-0.1,0.1-0.2,0.2-0.3,0.3c0,0,0-0.1-0.1-0.1c0,0-0.1,0.1-0.1,0.1
			c-0.9,0-1.8,0-2.7,0c-3.1,0-6.2,0-9.3,0c-0.2,0-0.3,0-0.5,0c-0.5,0-0.6,0.1-0.4,0.6c0.3,0.7,0.7,1.3,1.3,1.9
			c0.8,0.7,1.8,1.1,2.8,1.4c0.1,0.1,0.1,0.3,0.2,0.3c0.2,0,0.4,0,0.5,0c3.3,0,6.6,0,9.9,0c0.3,0,0.6,0.1,0.9,0.1
			c-0.4,0.7-0.9,1.4-1.3,2.1c-0.1,0.3-0.4,0.3-0.6,0.3c-1.3,0-2.7,0-4,0c-1.8,0-3.6,0-5.4,0c-3.3-0.1-5.6-1.7-7.1-4.6
			c-1.8-3.7-0.4-8.3,3.2-10.4c1.1-0.6,2.3-1.1,3.6-1.1c3.8,0,7.6,0,11.4,0c0,0,0.1,0,0.2,0.1c-0.1,0.2-0.2,0.4-0.3,0.5
			c-0.5,0.7-0.9,1.4-1.4,2.1C133.2,55.4,133.2,55.5,133.1,55.6L133.1,55.6z"/>
		<path class="st1" d="M72.8,76.9c15.8,0,31.6,0,47.4,0c4.6,0,9.3,0,13.9,0c0.1,0,0.2,0,0.3,0c0.2,0,0.6,0,0.6,0.1
			c0.1,0.2,0.1,0.6,0,0.8c0,0.1-0.2,0.2-0.3,0.3c-0.2,0-0.4,0-0.6,0c-21.3,0-42.7,0-64,0c-19.6,0-39.2,0-58.8,0c-0.2,0-0.4,0-0.6,0
			c-0.5,0-0.5,0-0.5-0.5c0-0.9-0.1-0.8,0.7-0.8c19.2,0,38.4,0,57.6,0C70.1,76.9,71.4,76.9,72.8,76.9z"/>
		<path class="st0" d="M65.9,65.8c-0.6-0.8-1.2-1.7-1.8-2.6c0.3,0,0.4-0.1,0.6-0.1c2.3,0,4.6,0,6.9,0c0.1,0,0.3,0,0.4,0
			c0.3,0,0.3-0.1,0.2-0.3c-0.2-0.3-0.4-0.7-0.6-1c-1.1-1.7-2.1-3.4-3.2-5.2c-0.1-0.1-0.2-0.2-0.3-0.4c-0.9,1.4-1.7,2.7-2.6,4
			c-1.7,2.7-3.4,5.3-5,8c-0.2,0.4-0.5,0.6-1,0.6c-0.8,0-1.5,0-2.3,0.1c-0.2,0-0.5,0-0.8,0c0.1-0.3,0.2-0.4,0.3-0.6
			c2.7-4.2,5.4-8.4,8-12.6c0.4-0.7,0.9-1.4,1.3-2.1c0.9-1.5,3-1.6,4-0.1c1.7,2.6,3.4,5.3,5.1,7.9c1.5,2.3,3,4.6,4.5,7
			c0.1,0.1,0.1,0.2,0.1,0.4c-0.1,0-0.2,0.1-0.3,0.1c-1,0-2-0.1-3-0.1c-0.3,0-0.5-0.2-0.6-0.4c-0.4-0.6-0.8-1.2-1.1-1.9
			c-0.2-0.4-0.5-0.5-0.9-0.5c-2.3,0-4.6,0-6.9,0c-0.3,0-0.5,0-0.8,0C66,65.9,65.9,65.9,65.9,65.8z"/>
		<path class="st0" d="M95.5,55.5c-0.2,0.3-0.4,0.1-0.6,0.1c-2.8,0-5.5,0.1-8.3,0c-2.4-0.1-4.8,1.7-5.3,4.2c-0.5,2.9,1.3,5.4,4,6
			c0.2,0,0.3,0.1,0.4,0.1c0.1,0.1,0.1,0.3,0.2,0.3c0.2,0,0.4,0,0.5,0c3.3,0,6.6,0,9.9,0c0.3,0,0.6,0,0.9,0.2
			c-0.4,0.7-0.9,1.4-1.3,2.1c-0.2,0.3-0.4,0.2-0.7,0.2c-2,0-4,0-5.9,0c-1,0-2.1,0-3.1,0c-3.3,0.1-6.7-2.1-7.8-5.8
			c-1-3.5,0.5-7.4,3.7-9.2c1.3-0.8,2.7-1.1,4.2-1.1c3.5,0,6.9,0,10.4,0c0.1,0,0.3,0,0.4,0c0.2,0,0.2,0.2,0.1,0.3
			C96.7,53.8,96.1,54.7,95.5,55.5c0,0-0.1-0.1-0.1-0.1C95.4,55.5,95.5,55.5,95.5,55.5z M85.9,55.4C85.9,55.4,85.9,55.4,85.9,55.4
			C85.9,55.5,85.9,55.5,85.9,55.4C85.9,55.5,86,55.5,85.9,55.4C86,55.4,85.9,55.4,85.9,55.4z"/>
		<path class="st0" d="M116,66c0.1,0,0.2,0,0.2,0c0.2,0,0.3,0,0.2,0.3c-0.5,0.8-1,1.6-1.5,2.4c-0.1,0.2-0.3,0.2-0.5,0.2
			c-4.7,0-9.3,0-14,0c-0.7,0-1.3-0.6-1.4-1.4c0-0.2,0-0.4,0-0.6c0-4.5,0-9,0-13.5c0-0.2-0.2-0.6,0.2-0.7c0,0.2,0.1,0.2,0.3,0.2
			c0.9,0,1.7,0,2.6,0c0,1.8,0,3.6,0,5.5c0,2.3,0,4.5,0,6.8c0,0.3,0.1,0.5,0.1,0.8c0,0.1,0.1,0.2,0.1,0.2c0.2,0,0.4,0,0.5,0
			c4.1,0,8.3,0,12.4,0c0.2,0,0.4,0,0.5,0C115.9,66.3,115.9,66.1,116,66z"/>
		<path class="st2" d="M83.5,91.3c0.5,0.4,1,0.8,1.4,1.2c0.9,1,0.8,2.5-0.1,3.4c-0.5,0.6-1.2,0.9-1.9,1.1c-0.4,0.1-0.9,0.2-1.3,0.2
			c-1.4,0-2.9,0-4.3,0c-0.6,0-0.6,0-0.6-0.6c0-3.4,0-6.7,0-10.1c0-0.5,0-0.5,0.5-0.6c1.5,0,3-0.1,4.4,0c1,0,2,0.4,2.7,1.2
			c0.8,0.9,0.8,2.8-0.3,3.6C83.9,91,83.7,91.1,83.5,91.3z M79.2,93.8C79.2,93.8,79.2,93.8,79.2,93.8c0,0.4,0,0.7,0,1.1
			c0,0.2,0.1,0.4,0.3,0.4c0.8,0,1.7,0,2.5-0.1c0.5-0.1,0.8-0.4,0.8-0.9c0-0.2,0-0.5,0-0.7c-0.1-0.6-0.4-1-1.1-1.1
			c-0.4,0-0.8,0-1.2,0c-0.4,0-0.9,0-1.3,0C79.3,92.9,79.2,93.3,79.2,93.8z M79.2,89.2C79.2,89.2,79.2,89.2,79.2,89.2
			c0,0.3,0.1,0.6,0,0.9c0,0.3,0.1,0.4,0.4,0.4c0.7,0,1.3,0,2-0.1c0.6-0.1,0.9-0.5,0.9-1.1c0-0.7-0.2-1.2-0.9-1.3
			c-0.4-0.1-0.8-0.1-1.2-0.1c-0.4,0-0.8,0-1.2,0.1C79.3,88.4,79.2,88.8,79.2,89.2z"/>
		<path class="st2" d="M10.3,91.5c0-1.7,0-3.4,0-5.1c0-0.3,0.1-0.5,0.5-0.4c1.3,0,2.6,0,3.9,0c0.7,0,1.5,0.2,2.1,0.4
			c1.6,0.6,2.5,1.8,2.8,3.4c0.3,1.4,0.2,2.8-0.2,4.2c-0.4,1.3-1.3,2.1-2.5,2.7c-0.8,0.3-1.6,0.4-2.5,0.4c-1.2,0-2.4,0-3.6,0
			c-0.5,0-0.5,0-0.5-0.5C10.3,94.9,10.3,93.2,10.3,91.5z M12.7,91.5c0,1.1,0,2.2,0,3.3c0,0.3,0.1,0.4,0.4,0.4c0.5,0,0.9,0,1.4-0.1
			c1.2-0.1,2-0.8,2.3-1.9c0.3-1,0.2-2,0.1-3c-0.2-1.2-0.9-2-2.1-2.3c-0.5-0.1-1-0.1-1.6-0.1c-0.5,0-0.6-0.1-0.6,0.5
			C12.8,89.5,12.7,90.5,12.7,91.5z"/>
		<path class="st2" d="M114.8,97.5c-0.9,0-1.7-0.2-2.5-0.5c-1.1-0.5-1.8-1.9-1.7-3c0-0.3,0.1-0.3,0.3-0.3c0.6,0,1.3,0,1.9,0
			c0.3,0,0.3,0.1,0.3,0.4c0.1,1.1,0.6,1.6,1.7,1.6c0.5,0,0.9-0.1,1.4-0.2c0.5-0.2,0.8-0.5,0.8-1.1c0-0.6-0.3-1-0.8-1.1
			c-0.7-0.2-1.5-0.4-2.2-0.6c-0.6-0.2-1.2-0.4-1.7-0.7c-1.7-0.9-2-2.9-0.8-4.4c0.7-0.9,1.7-1.3,2.7-1.5c1-0.2,2.1-0.2,3.1,0.2
			c1,0.4,1.9,1.6,2,2.7c0,0.3-0.1,0.4-0.4,0.4c-0.5,0-1,0-1.5,0c-0.3,0-0.5-0.1-0.6-0.5c-0.1-0.6-0.5-1.1-1.1-1.1
			c-0.8-0.1-1.5-0.1-2.1,0.6c-0.4,0.6-0.3,1.3,0.4,1.7c0.3,0.2,0.7,0.3,1.1,0.4c0.9,0.3,1.8,0.5,2.7,0.8c1.4,0.5,2,1.8,1.7,3.2
			c-0.3,1.6-1.3,2.3-2.7,2.7C116.1,97.3,115.4,97.4,114.8,97.5z"/>
		<path class="st2" d="M127.6,91.6c0-1.7,0-3.4,0-5.2c0-0.3,0.1-0.5,0.4-0.5c2.2,0,4.4,0,6.6,0c0.3,0,0.5,0.1,0.5,0.4
			c0,0.4,0,0.8,0,1.2c0,0.3-0.1,0.3-0.4,0.3c-1.3,0-2.6,0-3.9,0c-0.2,0-0.3,0-0.5,0c-0.2,0-0.3,0-0.3,0.3c0.1,0.5,0,1.1,0,1.7
			c0,0.5,0,0.5,0.5,0.5c1.2,0,2.5,0,3.7,0c0.5,0,0.6,0,0.6,0.6c0,0.3,0,0.6,0,1c0,0.3-0.1,0.4-0.4,0.4c-0.5,0-1,0-1.4,0
			c-0.9,0-1.8,0-2.7,0c-0.2,0-0.3,0-0.3,0.3c0,0.7,0,1.3,0,2c0,0.2-0.1,0.4,0,0.5c0.1,0.1,0.3,0.1,0.5,0.1c1.3,0,2.6,0,4,0
			c0.7,0,0.7,0,0.7,0.7c0,0.4,0.1,0.9-0.1,1.1c-0.2,0.3-0.8,0.1-1.2,0.1c-2,0-3.9,0-5.9,0c-0.5,0-0.5,0-0.5-0.5
			C127.6,95,127.6,93.3,127.6,91.6z"/>
		<path class="st2" d="M69.2,97.2c-0.8,0-1.5,0-2.2,0c-0.1,0-0.3-0.2-0.4-0.3c-0.2-0.5-0.4-1-0.5-1.6c-0.1-0.3-0.2-0.5-0.6-0.5
			c-1.2,0-2.3,0-3.5,0c-0.3,0-0.4,0.1-0.5,0.4c-0.2,0.5-0.4,1.1-0.6,1.6c-0.1,0.2-0.2,0.4-0.5,0.4c-0.6,0-1.1,0-1.7,0
			c-0.3,0-0.3-0.1-0.2-0.3c0.6-1.5,1.1-3.1,1.7-4.6c0.7-1.9,1.4-3.8,2.1-5.7c0.1-0.3,0.2-0.5,0.5-0.4c0.7,0,1.5,0,2.2,0
			c0.3,0,0.3,0.1,0.4,0.4c0.4,1.3,0.9,2.5,1.3,3.8C67.5,92.5,68.3,94.8,69.2,97.2z M62.2,92.9c1.1,0,2,0,3.1,0
			c-0.5-1.5-0.9-3-1.5-4.5C63.2,90,62.7,91.4,62.2,92.9z"/>
		<path class="st2" d="M37.8,97.2c-0.8,0-1.5,0-2.1,0c-0.3,0-0.4-0.1-0.5-0.4c-0.1-0.5-0.3-1-0.5-1.6c-0.1-0.3-0.2-0.4-0.6-0.4
			c-1.2,0-2.3,0-3.5,0c-0.3,0-0.4,0.1-0.5,0.4c-0.2,0.5-0.4,1.1-0.6,1.6c-0.1,0.2-0.2,0.4-0.5,0.4c-0.5,0-1,0-1.5,0
			c-0.5,0-0.5-0.1-0.4-0.5c0.4-1,0.7-1.9,1.1-2.9c0.9-2.5,1.8-4.9,2.7-7.4c0.1-0.3,0.3-0.5,0.6-0.4c0.7,0,1.3,0,2,0
			c0.3,0,0.5,0.1,0.6,0.4c0.6,1.7,1.1,3.4,1.7,5.1C36.4,93.3,37.1,95.2,37.8,97.2z M30.8,92.9c1,0,2,0,3,0c-0.5-1.5-1-3-1.5-4.6
			C31.8,90,31.3,91.4,30.8,92.9z"/>
		<path class="st2" d="M98.1,86c0.3,0,0.6,0,0.9,0c0.5,0,0.6,0,0.8,0.6c0.8,2.4,1.6,4.8,2.5,7.2c0.3,0.9,0.6,1.8,1,2.7
			c0.1,0.1,0.1,0.3,0.1,0.4c0,0.2,0,0.3-0.2,0.3c-0.6,0-1.3,0-1.9,0c-0.2,0-0.3-0.1-0.4-0.3c-0.2-0.5-0.3-1-0.5-1.6
			c-0.1-0.3-0.2-0.5-0.6-0.5c-1.1,0-2.3,0-3.4,0c-0.4,0-0.5,0.2-0.6,0.5c-0.2,0.5-0.4,1-0.5,1.6c-0.1,0.3-0.2,0.4-0.5,0.4
			c-0.5,0-1.1,0-1.6,0c-0.3,0-0.4-0.1-0.3-0.4c0.2-0.6,0.4-1.2,0.6-1.8c1-2.8,2.1-5.6,3.1-8.4c0.2-0.6,0.2-0.6,0.8-0.6
			C97.5,86,97.8,86,98.1,86z M96.4,92.9c1,0,1.9,0,2.8,0c0.3,0,0.3-0.1,0.2-0.4c-0.3-0.8-0.5-1.6-0.8-2.5c-0.2-0.5-0.4-1.1-0.6-1.8
			C97.5,90,97,91.4,96.4,92.9z"/>
		<path class="st2" d="M49.2,92.6c0,1.4,0,2.7,0,4.1c0,0.3-0.1,0.5-0.4,0.5c-0.5,0-1.1,0-1.6,0c-0.5,0-0.5,0-0.5-0.5
			c0-0.2,0-0.4,0-0.6c0-2.5,0-5.1,0-7.6c0-0.5,0-0.6-0.6-0.6c-0.8,0-1.6,0-2.4,0c-0.3,0-0.4-0.1-0.4-0.4c0-0.4,0-0.8,0-1.2
			c0-0.4,0.1-0.4,0.5-0.4c1.5,0,2.9,0,4.4,0c1.2,0,2.4,0,3.6,0c0.6,0,0.7,0,0.6,0.6c0,0.4,0.2,1-0.1,1.3c-0.3,0.2-0.8,0.1-1.2,0.1
			c-0.5,0-1,0-1.5,0c-0.4,0-0.4,0.1-0.4,0.5C49.2,89.8,49.2,91.2,49.2,92.6z"/>
		<path class="st0" d="M138.1,56.3c-1,0-1.8-0.8-1.8-1.8c0-1,0.9-1.9,1.8-1.9c1,0,2,0.9,1.9,1.9C139.9,55.6,139,56.4,138.1,56.3z
			 M137.4,53.4c-0.1,0-0.1,0-0.1,0c-0.5,0.3-0.7,1.3-0.2,1.9c0.5,0.6,1.3,0.7,1.9,0.2c0,0,0-0.1,0-0.2c0.1,0,0.3,0,0.3-0.1
			c0.3-0.4,0.4-0.9,0.1-1.4c-0.3-0.5-0.7-0.8-1.3-0.8C137.8,53.1,137.4,53,137.4,53.4z"/>
		<path class="st3" d="M116,66c0,0.1-0.1,0.2-0.1,0.2c-0.2,0-0.4,0-0.5,0c-4.1,0-8.3,0-12.4,0c-0.2,0-0.4,0-0.5,0
			c-0.1,0-0.1-0.2-0.1-0.2c1.1,0,2.1,0,3.2,0c3.3,0,6.6,0,9.8,0C115.4,66,115.7,66,116,66z"/>
		<path class="st3" d="M97.3,66.5c-0.3-0.2-0.6-0.2-0.9-0.2c-3.3,0-6.6,0-9.9,0c-0.2,0-0.4,0-0.5,0c-0.1,0-0.1-0.2-0.2-0.3
			c3.9,0,7.8,0,11.7,0c0,0,0,0.1,0,0.1C97.4,66.3,97.3,66.4,97.3,66.5z"/>
		<path class="st3" d="M135,66.5c-0.3-0.1-0.6-0.1-0.9-0.1c-3.3,0-6.6,0-9.9,0c-0.2,0-0.4,0-0.5,0c-0.1,0-0.1-0.2-0.2-0.3
			c3.9,0,7.8,0,11.7,0c0,0,0,0.1,0,0.1C135.1,66.3,135.1,66.4,135,66.5z"/>
		<path class="st3" d="M51,60.8c0,0.1-0.1,0.2-0.1,0.3c-0.2,0-0.4,0-0.6,0c-2.7,0-5.3,0-8,0c0-0.1-0.1-0.1-0.1-0.2c0,0,0-0.1,0-0.1
			c0.2,0,0.3,0,0.5,0C45.4,60.8,48.2,60.8,51,60.8z"/>
		<path class="st3" d="M102,53c-0.9,0-1.7,0-2.6,0c-0.2,0-0.3,0-0.3-0.2c1-0.1,1.9-0.2,2.8,0.1C102,52.9,102,52.9,102,53L102,53z"/>
		<path class="st0" d="M135.2,66.2c0,0,0-0.1,0-0.1C135.2,66.1,135.2,66.1,135.2,66.2C135.2,66.1,135.2,66.1,135.2,66.2z"/>
		<path class="st0" d="M97.4,66.2c0,0,0-0.1,0-0.1c0,0,0.1,0,0.1,0C97.5,66.1,97.5,66.1,97.4,66.2z"/>
		<path class="st3" d="M65.9,65.8c0.1,0.1,0.1,0.1,0.2,0.2C66,65.9,65.9,65.9,65.9,65.8z"/>
		<path class="st0" d="M42.1,60.8C42.1,60.9,42.1,60.9,42.1,60.8c0,0.1-0.1,0-0.1,0C42,60.8,42.1,60.8,42.1,60.8z"/>
		<path class="st0" d="M133.2,55.5c0,0.2-0.1,0.1-0.2,0l0.1-0.1C133.1,55.5,133.2,55.5,133.2,55.5z"/>
		<path class="st3" d="M133.2,55.5c0,0-0.1,0-0.1,0c0.1,0,0.1-0.1,0.2-0.1C133.3,55.4,133.2,55.5,133.2,55.5z"/>
		<path class="st0" d="M102,53c0-0.1,0-0.1,0-0.2C102.2,52.9,102.2,52.9,102,53z"/>
		<path class="st3" d="M132.1,62.2c0,0,0.1-0.1,0.1-0.1c0,0,0,0.1,0.1,0.1C132.2,62.2,132.2,62.2,132.1,62.2z"/>
		<path class="st3" d="M17.7,66c3,0,5.9,0,8.9,0c0.5,0,1.1,0,1.6,0c-0.1,0.1-0.1,0.3-0.2,0.3c-0.1,0.1-0.3,0-0.4,0
			c-3.1,0-6.2,0-9.3,0c-0.2,0-0.3,0-0.5,0C17.7,66.3,17.7,66.1,17.7,66z"/>
		<path class="st3" d="M27.6,55.5c0,0,0-0.1,0.1-0.1c0,0,0,0,0.1,0.1C27.7,55.5,27.7,55.5,27.6,55.5C27.6,55.6,27.6,55.5,27.6,55.5z
			"/>
		<path class="st3" d="M18,55.6c0,0-0.1,0-0.1-0.1c0,0,0,0,0.1-0.1C18,55.5,18,55.5,18,55.6L18,55.6z"/>
		<path class="st3" d="M50.8,55.5c0,0,0-0.1,0.1-0.1c0,0,0,0,0.1,0.1C50.9,55.5,50.8,55.5,50.8,55.5L50.8,55.5z"/>
		<path class="st3" d="M123.8,55.6c0,0-0.1,0-0.1-0.1c0,0,0,0,0.1-0.1C123.7,55.5,123.7,55.5,123.8,55.6L123.8,55.6z"/>
		<path class="st3" d="M95.5,55.5c0,0-0.1,0-0.1-0.1C95.4,55.5,95.5,55.5,95.5,55.5L95.5,55.5z"/>
		<path class="st3" d="M85.9,55.4C85.9,55.4,86,55.4,85.9,55.4C86,55.5,85.9,55.5,85.9,55.4C85.9,55.5,85.9,55.5,85.9,55.4
			C85.9,55.4,85.9,55.4,85.9,55.4z"/>
		<path class="st0" d="M137.4,53.5c0.3,0,0.7-0.1,1,0c0.4,0,0.6,0.4,0.4,0.7c-0.3,0.5,0,0.8,0.1,1.2c-0.2,0.1-0.5,0.1-0.6-0.2
			c-0.1-0.1-0.1-0.2-0.2-0.3c0-0.1-0.1-0.1-0.2-0.1c0,0-0.1,0.1-0.1,0.2c0,0.2,0.1,0.5-0.3,0.5c-0.3-0.1-0.2-0.4-0.2-0.6
			C137.4,54.4,137.4,53.9,137.4,53.5z M138.1,54.4c0.1-0.2,0.3-0.3,0.3-0.4c0,0-0.2-0.2-0.3-0.2c-0.1,0-0.2,0.1-0.2,0.2
			C137.9,54.1,138,54.2,138.1,54.4z"/>
	</g>
</g>
</svg>
